<?xml version="1.0" encoding="UTF-8" standalone="no"?>
<!-- Created with Inkscape (http://www.inkscape.org/) -->

<svg
   xmlns:dc="http://purl.org/dc/elements/1.1/"
   xmlns:cc="http://creativecommons.org/ns#"
   xmlns:rdf="http://www.w3.org/1999/02/22-rdf-syntax-ns#"
   xmlns:svg="http://www.w3.org/2000/svg"
   xmlns="http://www.w3.org/2000/svg"
   xmlns:sodipodi="http://sodipodi.sourceforge.net/DTD/sodipodi-0.dtd"
   xmlns:inkscape="http://www.inkscape.org/namespaces/inkscape"
   width="38.219543mm"
   height="38.219543mm"
   viewBox="0 0 38.219543 38.219543"
   version="1.1"
   id="svg1258"
   inkscape:version="0.92.5 (2060ec1f9f, 2020-04-08)"
   sodipodi:docname="contactjs-logo-circle.svg">
  <defs
     id="defs1252" />
  <sodipodi:namedview
     id="base"
     pagecolor="#ffffff"
     bordercolor="#666666"
     borderopacity="1.0"
     inkscape:pageopacity="0.0"
     inkscape:pageshadow="2"
     inkscape:zoom="0.98994949"
     inkscape:cx="-40.114715"
     inkscape:cy="18.998746"
     inkscape:document-units="mm"
     inkscape:current-layer="layer1"
     showgrid="false"
     fit-margin-top="0"
     fit-margin-left="0"
     fit-margin-right="0"
     fit-margin-bottom="0"
     inkscape:window-width="1848"
     inkscape:window-height="1016"
     inkscape:window-x="72"
     inkscape:window-y="27"
     inkscape:window-maximized="1" />
  <metadata
     id="metadata1255">
    <rdf:RDF>
      <cc:Work
         rdf:about="">
        <dc:format>image/svg+xml</dc:format>
        <dc:type
           rdf:resource="http://purl.org/dc/dcmitype/StillImage" />
        <dc:title></dc:title>
      </cc:Work>
    </rdf:RDF>
  </metadata>
  <g
     inkscape:label="Layer 1"
     inkscape:groupmode="layer"
     id="layer1"
     transform="translate(-63.289037,-107.80094)">
    <circle
       style="display:inline;opacity:1;fill:#87edff;fill-opacity:1;stroke:none;stroke-width:10.08944416;stroke-miterlimit:4;stroke-dasharray:none;stroke-opacity:0.90588235"
       id="path880-7"
       cx="82.398811"
       cy="126.91071"
       r="19.109772" />
    <path
       id="path2-3"
       d="m 82.398588,134.39758 c -1.4586,0 -2.642512,1.18381 -2.642512,2.64251 0,1.4587 1.18381,2.64251 2.642512,2.64251 1.458597,0 2.642509,-1.18381 2.642509,-2.64251 0,-1.4587 -1.183912,-2.64251 -2.642509,-2.64251 z m 7.046591,-1.76148 c -1.4586,0 -2.642509,1.18291 -2.642509,2.64251 0,1.45961 1.183809,2.64252 2.642509,2.64252 1.4586,0 2.642511,-1.18291 2.642511,-2.64252 0,-1.4596 -1.183911,-2.64251 -2.642511,-2.64251 z m -14.093185,0 c -1.4586,0 -2.642508,1.18291 -2.642508,2.64251 0,1.45961 1.183809,2.64252 2.642508,2.64252 1.4587,0 2.642509,-1.18291 2.642509,-2.64252 0,-1.4596 -1.183909,-2.64251 -2.642509,-2.64251 z"
       style="fill:#b34180;fill-opacity:1;stroke-width:0.10065555"
       inkscape:connector-curvature="0" />
    <path
       id="path4-5"
       d="m 74.296722,125.88705 c 4.466689,-2.75253 11.708755,-2.75253 16.17625,0 4.467495,2.75253 4.466693,7.21479 0,9.96742 -4.466689,2.75262 -11.70966,2.75252 -16.17625,0 -4.466591,-2.75253 -4.467496,-7.21479 0,-9.96742 z"
       style="fill:#e36bae;fill-opacity:1;stroke-width:0.10065555"
       inkscape:connector-curvature="0" />
    <path
       id="path6-6"
       d="m 72.432985,120.99147 c 5.50334,-3.26789 14.427863,-3.26789 19.933018,0 5.503341,3.26788 5.503341,8.56598 0,11.83387 -5.505155,3.26869 -14.429578,3.26869 -19.933018,0 -5.505156,-3.26789 -5.505156,-8.56599 0,-11.83387 z"
       style="fill:#3e4682;fill-opacity:1;stroke-width:0.10065555"
       inkscape:connector-curvature="0" />
    <path
       id="path8-2"
       d="m 82.398588,114.13884 c 4.864781,0 8.808266,3.94348 8.808266,8.80826 0,4.86479 -3.943485,7.0466 -8.808266,7.0466 -4.864784,0 -8.808266,-2.18181 -8.808266,-7.0466 0,-4.86478 3.943482,-8.80826 8.808266,-8.80826 z"
       style="fill:#e4e7e7;stroke-width:0.10065555"
       inkscape:connector-curvature="0" />
    <path
       id="path10-9"
       d="m 87.418378,128.99821 c 0.1709,-0.51878 0.265134,-1.07289 0.265134,-1.64713 v -4.40418 c 0,-2.9182 -2.365909,-5.28492 -5.284918,-5.28492 -2.918207,0 -5.284921,2.36591 -5.284921,5.28492 v 4.40408 c 0,0.57434 0.09511,1.12835 0.265133,1.64713 1.424275,0.67117 3.15243,0.99528 5.019794,0.99528 1.866453,1e-4 3.594608,-0.32401 5.01979,-0.99518 z"
       style="fill:#3db39e;stroke-width:0.10065555"
       inkscape:connector-curvature="0" />
    <path
       id="path12-1"
       d="m 82.398588,121.18523 c 1.458597,0 2.642509,1.1829 2.642509,2.64251 0,1.46041 -1.18381,2.64331 -2.642509,2.64331 -1.4586,0 -2.642512,-1.1829 -2.642512,-2.64331 0,-1.45951 1.18381,-2.64251 2.642512,-2.64251 z"
       style="fill:#ffffff;stroke-width:0.10065555"
       inkscape:connector-curvature="0" />
    <path
       id="path14-2"
       d="m 82.398588,122.9469 c 0.48707,0 0.880836,0.39457 0.880836,0.88084 0,0.48707 -0.393766,0.88084 -0.880836,0.88084 -0.487073,0 -0.880839,-0.39377 -0.880839,-0.88084 0,-0.48617 0.393766,-0.88084 0.880839,-0.88084 z"
       style="fill:#324d5b;stroke-width:0.10065555"
       inkscape:connector-curvature="0" />
  </g>
</svg>
